<?xml version="1.0" encoding="UTF-8"?>
<svg version="1.1" xmlns="http://www.w3.org/2000/svg" width="320" height="320">
<path d="M0 0 C9.37974764 -0.11613031 18.75924574 -0.20483442 28.13955688 -0.25906086 C32.49580376 -0.28509421 36.85155681 -0.32037635 41.20751953 -0.37719727 C45.41562719 -0.43174256 49.62326151 -0.46146759 53.83169556 -0.47438622 C55.43282517 -0.48358595 57.03393047 -0.50155102 58.63485718 -0.52865028 C74.89283873 -0.79277138 74.89283873 -0.79277138 81 5 C84.52498895 8.7012384 85.26911342 11.52922828 85.4375 16.5 C85.30025678 21.10388628 84.05316374 23.89367253 82 28 C82.433125 28.721875 82.86625 29.44375 83.3125 30.1875 C85.96945308 34.61575513 85.75042874 38.97068433 85 44 C83.04634672 48.92935665 79.46118452 51.92191375 74.69555664 54.19055176 C68.53278515 56.04116935 61.84648681 55.47822343 55.46875 55.390625 C53.86593332 55.38315418 52.26310744 55.37746522 50.66027832 55.37347412 C46.46466351 55.35828378 42.26961252 55.31906025 38.07421875 55.2746582 C33.78393173 55.23356194 29.4935526 55.21543262 25.203125 55.1953125 C16.8018261 55.15255842 8.40098341 55.08438872 0 55 C0 51.04 0 47.08 0 43 C0.85999603 42.99191315 1.71999207 42.98382629 2.60604858 42.97549438 C10.6994356 42.89764573 18.79265405 42.81038489 26.8858242 42.71247292 C31.04689558 42.66246601 35.20794101 42.61613659 39.36914062 42.578125 C43.38278867 42.54132738 47.396222 42.49498297 51.40968704 42.44193649 C52.94309356 42.42336304 54.47654616 42.40826604 56.01002121 42.39665604 C58.15322746 42.37984359 60.29593881 42.35082212 62.43896484 42.31884766 C63.66030121 42.30552399 64.88163757 42.29220032 66.13998413 42.2784729 C69.13053567 42.29296656 69.13053567 42.29296656 71 40 C71 38.35 71 36.7 71 35 C47.57 34.67 24.14 34.34 0 34 C0 29.71 0 25.42 0 21 C2.07974121 20.98018066 4.15948242 20.96036133 6.30224609 20.93994141 C13.16354916 20.87311993 20.0246988 20.79547949 26.8858242 20.71247292 C31.04689558 20.66246601 35.20794101 20.61613659 39.36914062 20.578125 C43.38278867 20.54132738 47.396222 20.49498297 51.40968704 20.44193649 C52.94309356 20.42336304 54.47654616 20.40826604 56.01002121 20.39665604 C58.15322746 20.37984359 60.29593881 20.35082212 62.43896484 20.31884766 C63.66030121 20.30552399 64.88163757 20.29220032 66.13998413 20.2784729 C69.13053567 20.29296656 69.13053567 20.29296656 71 18 C71 16.35 71 14.7 71 13 C47.57 12.67 24.14 12.34 0 12 C0 8.04 0 4.08 0 0 Z " fill="#363334" transform="translate(16,132)"/>
<path d="M0 0 C8.17179803 -0.09310726 16.34337058 -0.16396947 24.51556969 -0.20724869 C28.3111903 -0.22803153 32.10644524 -0.25617593 35.90185547 -0.30175781 C39.57179937 -0.34555183 43.24139388 -0.36920687 46.91157913 -0.37950897 C48.30449541 -0.38684076 49.69739483 -0.40115646 51.09016037 -0.42292023 C62.60775071 -0.59556929 71.81588834 0.9033292 80.3046875 9.1171875 C86.41466504 15.90292292 86.82963541 23.0374638 86.4453125 31.921875 C85.87477771 38.90216103 82.790974 43.50313748 77.875 48.3125 C68.86855109 55.09546726 59.03926594 55.56436891 48.14453125 55.390625 C46.74778563 55.3831448 45.35102937 55.3774603 43.95426941 55.37347412 C40.31596807 55.3583572 36.67832734 55.31920077 33.0402832 55.2746582 C29.31275361 55.23340007 25.58511503 55.21539862 21.85742188 55.1953125 C14.57131665 55.15268874 7.28575163 55.08461263 0 55 C0 51.37 0 47.74 0 44 C1.14251221 43.97494385 2.28502441 43.9498877 3.4621582 43.92407227 C7.7993034 43.82817816 12.13635395 43.72844229 16.47338867 43.62768555 C18.33208974 43.58501006 20.19081342 43.54330575 22.04956055 43.50268555 C27.47315604 43.38379211 32.89557201 43.24413651 38.31793213 43.07794189 C40.10449906 43.02602359 41.89126541 42.98056152 43.67816162 42.94158936 C46.23815066 42.88402887 48.79634357 42.80216738 51.35546875 42.71484375 C52.11080399 42.70288467 52.86613922 42.6909256 53.6443634 42.67860413 C60.42275145 42.40193232 65.83754615 40.32463789 70.5 35.3125 C72.4391978 31.03010487 72.82057697 27.62507022 72 23 C69.77385782 18.54771564 67.48981614 16.13266267 63 14 C59.71732623 12.97215825 56.66810023 12.85274587 53.23754883 12.81054688 C52.07987503 12.79382935 50.92220123 12.77711182 49.72944641 12.7598877 C48.48454941 12.74631226 47.2396524 12.73273682 45.95703125 12.71875 C44.00287309 12.69063007 42.04871498 12.66250484 40.09456158 12.63405609 C35.97047786 12.57553162 31.84628423 12.52535624 27.72210693 12.47393799 C23.02949721 12.41503838 18.33702436 12.34892583 13.64453125 12.28125 C12.39356155 12.26767456 11.14259186 12.25409912 9.85371399 12.2401123 C8.13138802 12.21503601 8.13138802 12.21503601 6.37426758 12.18945312 C5.35818924 12.17692505 4.3421109 12.16439697 3.29524231 12.15148926 C1 12 1 12 0 11 C-0.07226502 9.14712498 -0.0838122 7.29166122 -0.0625 5.4375 C-0.05347656 4.42558594 -0.04445312 3.41367188 -0.03515625 2.37109375 C-0.02355469 1.58863281 -0.01195312 0.80617187 0 0 Z " fill="#363334" transform="translate(218,132)"/>
<path d="M0 0 C4.62 0 9.24 0 14 0 C14.0809117 4.39620224 14.14046573 8.79091597 14.1875 13.1875 C14.21263672 14.43337891 14.23777344 15.67925781 14.26367188 16.96289062 C14.27333984 18.16494141 14.28300781 19.36699219 14.29296875 20.60546875 C14.3086792 21.71043701 14.32438965 22.81540527 14.34057617 23.95385742 C13.94706593 27.47344687 13.17936422 29.22100665 11 32 C7.14513331 35.04126842 4.2275629 35.35928168 -0.61328125 35.29296875 C-1.86044922 35.28330078 -3.10761719 35.27363281 -4.39257812 35.26367188 C-5.68615234 35.23853516 -6.97972656 35.21339844 -8.3125 35.1875 C-10.28186523 35.16719727 -10.28186523 35.16719727 -12.29101562 35.14648438 C-15.5275195 35.11117706 -18.76381206 35.05737168 -22 35 C-22 41.6 -22 48.2 -22 55 C-27.28 55 -32.56 55 -38 55 C-38 44.44 -38 33.88 -38 23 C-34.24496094 22.90912109 -34.24496094 22.90912109 -30.4140625 22.81640625 C-27.99476044 22.75463238 -25.57550591 22.69123827 -23.15625 22.62768555 C-21.47237358 22.58432183 -19.78845277 22.5426478 -18.10449219 22.50268555 C-15.68671276 22.44501766 -13.26915705 22.3813135 -10.8515625 22.31640625 C-10.0963028 22.29969376 -9.34104309 22.28298126 -8.56289673 22.26576233 C-4.65260201 22.22444893 -4.65260201 22.22444893 -1 21 C-0.67 14.07 -0.34 7.14 0 0 Z " fill="#363334" transform="translate(193,132)"/>
<path d="M0 0 C4.62 0 9.24 0 14 0 C14.06058594 1.50433594 14.12117188 3.00867188 14.18359375 4.55859375 C14.26798043 6.51823989 14.35262935 8.47787476 14.4375 10.4375 C14.47681641 11.43072266 14.51613281 12.42394531 14.55664062 13.44726562 C14.61948242 14.86362305 14.61948242 14.86362305 14.68359375 16.30859375 C14.72025146 17.18314209 14.75690918 18.05769043 14.79467773 18.95874023 C14.78181066 20.9927402 14.78181066 20.9927402 16 22 C17.63256758 22.15714654 19.27135338 22.25085414 20.91015625 22.31640625 C22.39418945 22.37924805 22.39418945 22.37924805 23.90820312 22.44335938 C24.94912109 22.48267578 25.99003906 22.52199219 27.0625 22.5625 C28.10728516 22.60568359 29.15207031 22.64886719 30.22851562 22.69335938 C32.81883972 22.79981105 35.40940175 22.90044308 38 23 C38 26.96 38 30.92 38 35 C33.81912848 35.07441989 29.6386127 35.12872818 25.45727539 35.16479492 C24.03630859 35.1798376 22.61538787 35.20027704 21.19458008 35.22631836 C19.14653114 35.26290347 17.0990985 35.27977097 15.05078125 35.29296875 C13.20480347 35.31653442 13.20480347 35.31653442 11.3215332 35.34057617 C6.79786729 34.87673832 4.39245697 33.38165686 1.20581055 30.21972656 C-0.43706677 27.19542194 -0.33974206 24.91441756 -0.29296875 21.484375 C-0.28330078 20.23398438 -0.27363281 18.98359375 -0.26367188 17.6953125 C-0.2259668 15.74238281 -0.2259668 15.74238281 -0.1875 13.75 C-0.16719727 11.77386719 -0.16719727 11.77386719 -0.14648438 9.7578125 C-0.11112809 6.505034 -0.05732152 3.25246557 0 0 Z " fill="#363334" transform="translate(113,132)"/>
</svg>
